<?xml version="1.0" standalone="no"?>
<!DOCTYPE svg PUBLIC "-//W3C//DTD SVG 20010904//EN"
 "http://www.w3.org/TR/2001/REC-SVG-20010904/DTD/svg10.dtd">
<svg version="1.0" xmlns="http://www.w3.org/2000/svg"
 width="1024.000000pt" height="1024.000000pt" viewBox="0 0 1024.000000 1024.000000"
 preserveAspectRatio="xMidYMid meet">
<metadata>
Created by potrace 1.11, written by Peter Selinger 2001-2013
</metadata>
<g transform="translate(0.000000,1024.000000) scale(0.100000,-0.100000)"
fill="#000000" stroke="none">
<path d="M0 7810 c0 -1337 3 -2430 8 -2431 48 -4 2593 0 2594 4 2 4 -123 132
-276 286 l-279 280 37 5 c20 3 53 9 74 13 20 3 46 7 57 8 11 1 38 5 60 9 22 3
58 9 80 12 22 3 94 14 160 24 66 10 140 22 165 25 25 3 117 17 205 31 88 13
176 26 195 29 105 15 108 16 118 43 13 35 89 217 191 459 l81 192 0 1721 0
1720 -1735 0 -1735 0 0 -2430z"/>
<path d="M3870 8506 l0 -1735 51 -108 c98 -206 156 -328 204 -430 26 -56 50
-101 54 -101 7 2 113 -11 146 -18 40 -8 71 -13 120 -19 52 -7 85 -12 120 -19
11 -2 43 -7 70 -10 28 -4 75 -11 105 -16 30 -5 118 -19 195 -30 77 -12 156
-23 175 -26 19 -3 44 -7 55 -9 11 -2 45 -6 75 -10 30 -4 56 -8 58 -10 3 -2
-113 -122 -389 -401 -93 -94 -169 -173 -169 -176 0 -2 1238 -4 2750 -4 l2750
0 0 2428 0 2428 -3185 0 -3185 0 0 -1734z"/>
<path d="M4543 4892 c-12 -2 -20 -9 -18 -15 2 -7 7 -30 10 -52 3 -22 10 -69
16 -105 6 -36 13 -74 14 -85 3 -19 21 -131 30 -185 2 -14 6 -38 9 -55 3 -16
17 -100 31 -185 15 -85 29 -177 32 -204 l6 -49 -79 43 c-83 46 -131 71 -204
112 -25 14 -70 39 -100 55 -30 17 -75 41 -100 55 -25 14 -76 42 -115 63 -38
21 -100 55 -137 76 l-68 38 0 -2200 0 -2199 3185 0 3185 0 0 2445 0 2445 -37
0 c-195 3 -5643 4 -5660 2z"/>
<path d="M4 4861 c-2 -2 -4 -1097 -4 -2433 l0 -2428 1735 0 1735 0 0 2211 c0
1768 -3 2209 -12 2201 -14 -10 -777 -462 -782 -462 -2 0 0 21 5 48 4 26 10 72
14 102 3 30 8 62 10 70 2 8 6 38 10 65 3 28 8 61 10 75 13 88 28 189 31 215 1
17 5 44 8 60 22 131 38 266 33 271 -7 7 -2786 12 -2793 5z"/>
</g>
</svg>
