<?xml version="1.0" encoding="UTF-8" standalone="no"?>
<svg width="109px" height="109px" viewBox="0 0 109 109" version="1.1" xmlns="http://www.w3.org/2000/svg" xmlns:xlink="http://www.w3.org/1999/xlink" xmlns:sketch="http://www.bohemiancoding.com/sketch/ns">
    <!-- Generator: Sketch 3.3 (11970) - http://www.bohemiancoding.com/sketch -->
    <title>Imported Layers</title>
    <desc>Created with Sketch.</desc>
    <defs></defs>
    <g id="Page-1" stroke="none" stroke-width="1" fill="none" fill-rule="evenodd" sketch:type="MSPage">
        <g id="Desktop-HD" sketch:type="MSArtboardGroup" transform="translate(-493.000000, -146.000000)" fill="#FFC808">
            <path d="M498.92224,255 L500.749173,243.782133 L493,235.83952 L503.706987,234.204373 L508.498347,224 L513.29136,234.204373 L524,235.83952 L516.249173,243.782133 L518.076107,255 L508.498347,249.704373 L498.92224,255 Z M498.92224,216 L500.749173,204.782133 L493,196.837867 L503.706987,195.204373 L508.498347,185 L513.29136,195.204373 L524,196.837867 L516.249173,204.782133 L518.076107,216 L508.498347,210.704373 L498.92224,216 Z M498.92224,177 L500.749173,165.78048 L493,157.837867 L503.706987,156.20272 L508.498347,146 L513.29136,156.20272 L524,157.837867 L516.249173,165.78048 L518.076107,177 L508.498347,171.70272 L498.92224,177 Z M524,166 C524,168.206485 525.747237,170 527.898835,170 L598.101165,170 C600.259419,170 602,168.206485 602,166 C602,163.793515 600.252763,162 598.101165,162 L527.898835,162 C525.740581,162 524,163.793515 524,166 L524,166 Z M524,205 C524,207.206485 525.747237,209 527.898835,209 L598.101165,209 C600.259419,209 602,207.206485 602,205 C602,202.793515 600.252763,201 598.101165,201 L527.898835,201 C525.740581,201 524,202.793515 524,205 L524,205 Z M524,243.999147 C524,246.206102 525.747237,248 527.898835,248 L598.101165,248 C600.259419,248 602,246.206102 602,243.999147 C602,241.792191 600.252763,240 598.101165,240 L527.898835,240 C525.740581,240 524,241.792191 524,243.999147 L524,243.999147 Z" id="Imported-Layers" sketch:type="MSShapeGroup"></path>
        </g>
    </g>
</svg>